<svg xmlns="http://www.w3.org/2000/svg" width="24" height="24" viewBox="0 0 24 24" fill="none">
  <path opacity="0.5" fill-rule="evenodd" clip-rule="evenodd" d="M12.8906 11.9395L17.6756 7.15446C17.9396 6.89047 17.9396 6.46198 17.6756 6.19799C17.4116 5.934 16.9831 5.934 16.7191 6.19799L11.9341 10.983L7.27615 6.32504C7.01217 6.06105 6.58367 6.06105 6.31969 6.32504C6.0557 6.58902 6.0557 7.01752 6.31969 7.2815L10.9777 11.9395L6.19799 16.7191C5.934 16.9831 5.934 17.4116 6.19799 17.6756C6.46198 17.9396 6.89047 17.9396 7.15446 17.6756L11.9341 12.8959L16.8408 17.8026C17.1048 18.0666 17.5333 18.0666 17.7973 17.8026C18.0613 17.5387 18.0613 17.1102 17.7973 16.8462L12.8906 11.9395Z" fill="#333333"/>
</svg>